<svg width="886" height="284" viewBox="0 0 886 284" fill="none" xmlns="http://www.w3.org/2000/svg">
<path d="M0.400002 208H31.6V0.0999944H0.400002V208ZM130.682 208V138.4H209.582L240.482 107.5V20.8L219.782 0.0999944H99.482V208H130.682ZM130.682 110.8V28.3H209.582V97.3L196.082 110.8H130.682ZM327.489 208V88L341.889 75.1H392.589V208H422.589V75.1H486.189V208H516.189V67.6L495.189 46.9H426.789L413.889 60.1L400.989 46.9H341.289L324.489 63.7V46.9H297.489V208H327.489ZM697.075 67.6L676.375 46.9H594.775L573.775 67.6V94.9H602.575V73.3H667.675V118H593.575L572.575 139V187L593.575 208H654.175L671.275 190.6V208H697.075V67.6ZM667.675 136.9V170.5L653.575 183.1H601.675V136.9H667.675ZM786.395 208V88L800.795 75.1H855.095V208H885.395V67.6L864.395 46.9H800.195L783.395 63.7V46.9H756.395V208H786.395Z" fill="url(#paint0_linear_0_1)"/>
<rect y="253" width="240" height="31" fill="url(#paint1_linear_0_1)"/>
<defs>
<linearGradient id="paint0_linear_0_1" x1="636.318" y1="45.8821" x2="545.187" y2="365.094" gradientUnits="userSpaceOnUse">
<stop stop-color="#F5EEFF"/>
<stop offset="1" stop-color="#F1F7FF"/>
</linearGradient>
<linearGradient id="paint1_linear_0_1" x1="212.5" y1="248.5" x2="211.447" y2="302.682" gradientUnits="userSpaceOnUse">
<stop stop-color="#6100FF"/>
<stop offset="1" stop-color="#0066FF"/>
</linearGradient>
</defs>
</svg>
